<svg width="26" height="28" viewBox="0 0 26 28" fill="none" xmlns="http://www.w3.org/2000/svg">
<path d="M12.6667 0.5C10.3067 0.5 8.22667 2.06 7.56 4.32667C6.85333 4.00667 6.10667 3.83333 5.33333 3.83333C3.91885 3.83333 2.56229 4.39524 1.5621 5.39543C0.561903 6.39562 0 7.75218 0 9.16667C0.00315907 10.3478 0.397325 11.4946 1.12096 12.4281C1.84459 13.3616 2.85696 14.0292 4 14.3267V23.8333H21.3333V14.3267C23.68 13.7133 25.3333 11.5933 25.3333 9.16667C25.3333 7.75218 24.7714 6.39562 23.7712 5.39543C22.771 4.39524 21.4145 3.83333 20 3.83333C19.2267 3.83333 18.48 4.00667 17.7733 4.32667C17.1067 2.06 15.0267 0.5 12.6667 0.5ZM12 12.5H13.3333V21.8333H12V12.5ZM8 15.1667H9.33333V21.8333H8V15.1667ZM16 15.1667H17.3333V21.8333H16V15.1667ZM4 25.1667V26.5C4 26.8536 4.14048 27.1928 4.39052 27.4428C4.64057 27.6929 4.97971 27.8333 5.33333 27.8333H20C20.3536 27.8333 20.6928 27.6929 20.9428 27.4428C21.1929 27.1928 21.3333 26.8536 21.3333 26.5V25.1667H4Z" fill="black"/>
</svg>
