<svg width="30" height="19" viewBox="0 0 30 19" fill="none" xmlns="http://www.w3.org/2000/svg">
<path d="M19.3375 8.61625C19.2214 8.50011 19.0836 8.40797 18.932 8.34509C18.7803 8.2822 18.6178 8.2498 18.4536 8.24975C18.2894 8.24969 18.1268 8.28197 17.9751 8.34475C17.8234 8.40752 17.6855 8.49957 17.5694 8.61562C17.4532 8.73168 17.3611 8.86947 17.2982 9.02114C17.2353 9.17281 17.2029 9.33537 17.2029 9.49956C17.2028 9.66374 17.2351 9.82633 17.2979 9.97804C17.3607 10.1298 17.4527 10.2676 17.5688 10.3837C17.8031 10.6183 18.1211 10.7501 18.4527 10.7503C18.7843 10.7504 19.1023 10.6188 19.3369 10.3844C19.5714 10.15 19.7033 9.83203 19.7034 9.50044C19.7035 9.16885 19.5719 8.8508 19.3375 8.61625ZM20.2213 5.965C20.3366 5.84561 20.4745 5.75038 20.627 5.68487C20.7795 5.61936 20.9435 5.58488 21.1095 5.58344C21.2755 5.58199 21.4401 5.61362 21.5937 5.67647C21.7473 5.73932 21.8869 5.83214 22.0042 5.94951C22.1216 6.06687 22.2144 6.20644 22.2773 6.36006C22.3401 6.51368 22.3718 6.67828 22.3703 6.84425C22.3689 7.01023 22.3344 7.17425 22.2689 7.32675C22.2034 7.47926 22.1081 7.61719 21.9888 7.7325C21.753 7.9602 21.4372 8.08619 21.1095 8.08334C20.7818 8.08049 20.4682 7.94903 20.2365 7.71727C20.0047 7.48551 19.8733 7.172 19.8704 6.84425C19.8676 6.51651 19.9936 6.20075 20.2213 5.965ZM24.64 8.61625C24.5247 8.49686 24.3868 8.40163 24.2343 8.33612C24.0818 8.27061 23.9177 8.23613 23.7518 8.23469C23.5858 8.23324 23.4212 8.26487 23.2676 8.32772C23.1139 8.39057 22.9744 8.48339 22.857 8.60076C22.7396 8.71812 22.6468 8.85769 22.584 9.01131C22.5211 9.16493 22.4895 9.32953 22.4909 9.4955C22.4924 9.66147 22.5269 9.8255 22.5924 9.978C22.6579 10.1305 22.7531 10.2684 22.8725 10.3837C23.1083 10.6114 23.424 10.7374 23.7518 10.7346C24.0795 10.7317 24.393 10.6003 24.6248 10.3685C24.8565 10.1368 24.988 9.82325 24.9908 9.4955C24.9937 9.16775 24.8677 8.852 24.64 8.61625ZM20.2213 11.2675C20.3374 11.1514 20.4752 11.0594 20.627 10.9966C20.7787 10.9338 20.9413 10.9016 21.1054 10.9016C21.2696 10.9017 21.4322 10.9341 21.5839 10.997C21.7355 11.0598 21.8733 11.152 21.9894 11.2681C22.1054 11.3843 22.1975 11.5221 22.2603 11.6738C22.323 11.8255 22.3553 11.9881 22.3553 12.1523C22.3552 12.3165 22.3228 12.4791 22.2599 12.6307C22.197 12.7824 22.1049 12.9202 21.9888 13.0362C21.7542 13.2706 21.4361 13.4022 21.1046 13.4021C20.773 13.402 20.455 13.2702 20.2206 13.0356C19.9862 12.8011 19.8546 12.483 19.8547 12.1514C19.8549 11.8198 19.9867 11.5019 20.2213 11.2675ZM7.5 10.75H5V8.25H7.5V5.75H10V8.25H12.5V10.75H10V13.25H7.5V10.75Z" fill="black"/>
<path fill-rule="evenodd" clip-rule="evenodd" d="M8.75 0.75C6.42936 0.75 4.20376 1.67187 2.56282 3.31282C0.921873 4.95376 0 7.17936 0 9.5C0 11.8206 0.921873 14.0462 2.56282 15.6872C4.20376 17.3281 6.42936 18.25 8.75 18.25H21.25C22.3991 18.25 23.5369 18.0237 24.5985 17.5839C25.6601 17.1442 26.6247 16.4997 27.4372 15.6872C28.2497 14.8747 28.8942 13.9101 29.3339 12.8485C29.7737 11.7869 30 10.6491 30 9.5C30 8.35093 29.7737 7.21312 29.3339 6.15152C28.8942 5.08992 28.2497 4.12533 27.4372 3.31282C26.6247 2.5003 25.6601 1.85578 24.5985 1.41605C23.5369 0.976325 22.3991 0.75 21.25 0.75H8.75ZM21.25 3.25H8.75C7.0924 3.25 5.50269 3.90848 4.33058 5.08058C3.15848 6.25269 2.5 7.8424 2.5 9.5C2.5 11.1576 3.15848 12.7473 4.33058 13.9194C5.50269 15.0915 7.0924 15.75 8.75 15.75H21.25C22.9076 15.75 24.4973 15.0915 25.6694 13.9194C26.8415 12.7473 27.5 11.1576 27.5 9.5C27.5 7.8424 26.8415 6.25269 25.6694 5.08058C24.4973 3.90848 22.9076 3.25 21.25 3.25Z" fill="black"/>
</svg>
