<svg width="31" height="29" viewBox="0 0 31 29" fill="none" xmlns="http://www.w3.org/2000/svg">
<path d="M5.00008 14.5V11.1666C5.00008 8.51446 6.05365 5.97092 7.92901 4.09556C9.80438 2.22019 12.3479 1.16663 15.0001 1.16663C17.6522 1.16663 20.1958 2.22019 22.0711 4.09556C23.9465 5.97092 25.0001 8.51446 25.0001 11.1666V14.5M25.0001 14.5L20.0001 9.49996M25.0001 14.5L30.0001 9.49996M1.66675 24.5C1.66675 25.384 2.01794 26.2319 2.64306 26.857C3.26818 27.4821 4.11603 27.8333 5.00008 27.8333C5.88414 27.8333 6.73198 27.4821 7.3571 26.857C7.98223 26.2319 8.33341 25.384 8.33341 24.5C8.33341 23.6159 7.98223 22.7681 7.3571 22.1429C6.73198 21.5178 5.88414 21.1666 5.00008 21.1666C4.11603 21.1666 3.26818 21.5178 2.64306 22.1429C2.01794 22.7681 1.66675 23.6159 1.66675 24.5ZM21.6667 24.5C21.6667 25.384 22.0179 26.2319 22.6431 26.857C23.2682 27.4821 24.116 27.8333 25.0001 27.8333C25.8841 27.8333 26.732 27.4821 27.3571 26.857C27.9822 26.2319 28.3334 25.384 28.3334 24.5C28.3334 23.6159 27.9822 22.7681 27.3571 22.1429C26.732 21.5178 25.8841 21.1666 25.0001 21.1666C24.116 21.1666 23.2682 21.5178 22.6431 22.1429C22.0179 22.7681 21.6667 23.6159 21.6667 24.5Z" stroke="black" stroke-width="2" stroke-linecap="round" stroke-linejoin="round"/>
</svg>
