<svg width="35" height="37" viewBox="0 0 35 37" fill="none" xmlns="http://www.w3.org/2000/svg">
<path d="M28.8334 15.8333C28.8334 9.41666 23.3334 4.33333 16.7501 5.08333C11.7501 5.66666 7.75007 9.66666 7.25007 14.6667C6.8334 18.5 8.41674 21.9167 11.0834 24.0833C12.2501 25.0833 13.0001 26.5 13.0001 28.0833V28.3333H23.0001V28.25C23.0001 26.75 23.6667 25.25 24.8334 24.25C27.2501 22.25 28.8334 19.25 28.8334 15.8333Z" fill="black"/>
<path d="M23.5001 14.3333L21.0001 12.6667C20.7501 12.5 20.3334 12.5 20.0834 12.6667L18.0001 14L16.0001 12.6667C15.7501 12.5 15.3334 12.5 15.0834 12.6667L12.5834 14.3333C12.4167 14.5 12.2501 14.6667 12.2501 14.9167C12.2501 15.1667 12.2501 15.4167 12.4167 15.5833L15.5834 19.5V28.3333H17.2501V19.1667C17.2501 19 17.1667 18.8333 17.0834 18.6667L14.3334 15.25L15.5834 14.4167L17.5834 15.75C17.8334 15.9167 18.2501 15.9167 18.5001 15.75L20.5001 14.4167L21.7501 15.25L19.0001 18.6667C18.9167 18.8333 18.8334 19 18.8334 19.1667V28.3333H20.5001V19.5L23.6667 15.5833C23.8334 15.4167 23.9167 15.1667 23.8334 14.9167C23.7501 14.6667 23.6667 14.4167 23.5001 14.3333Z" fill="black"/>
<path d="M18.0001 36.6667C19.3808 36.6667 20.5001 35.5474 20.5001 34.1667C20.5001 32.786 19.3808 31.6667 18.0001 31.6667C16.6194 31.6667 15.5001 32.786 15.5001 34.1667C15.5001 35.5474 16.6194 36.6667 18.0001 36.6667Z" fill="black"/>
<path d="M19.6667 35H16.3334C14.5001 35 13.0001 33.5 13.0001 31.6667V27.5H23.0001V31.6667C23.0001 33.5 21.5001 35 19.6667 35Z" fill="black"/>
<path d="M23.0001 31.6667L13.3334 33C13.5834 33.5833 14.0834 34.1667 14.6667 34.5L22.5001 33.4167C22.8334 32.9167 23.0001 32.3333 23.0001 31.6667ZM13.0001 29.75V31.4167L23.0001 30L23.0001 28.3333L13.0001 29.75Z" fill="black"/>
<path d="M0.969238 2.82999L3.32507 0.473328L34.9634 32.1117L32.6067 34.4683L0.969238 2.82999Z" fill="black"/>
</svg>
