<svg width="28" height="35" viewBox="0 0 28 35" fill="none" xmlns="http://www.w3.org/2000/svg">
<path d="M27.75 13.75C27.75 14.0815 27.6183 14.3995 27.3839 14.6339C27.1495 14.8683 26.8315 15 26.5 15C26.1685 15 25.8505 14.8683 25.6161 14.6339C25.3817 14.3995 25.25 14.0815 25.25 13.75C25.25 10.7663 24.0647 7.90483 21.955 5.79505C19.8452 3.68526 16.9837 2.5 14 2.5C11.0163 2.5 8.15483 3.68526 6.04505 5.79505C3.93526 7.90483 2.75 10.7663 2.75 13.75C2.75 17.9219 4.08281 19.2062 5.49531 20.5687C6.84531 21.875 8.375 23.3453 8.375 26.875C8.375 28.3668 8.96763 29.7976 10.0225 30.8525C11.0774 31.9074 12.5082 32.5 14 32.5C15.6 32.5 16.8828 31.85 18.0359 30.4547C18.1392 30.3245 18.2674 30.2163 18.413 30.1363C18.5586 30.0562 18.7187 30.006 18.8839 29.9886C19.0492 29.9712 19.2162 29.9869 19.3753 30.0348C19.5344 30.0826 19.6824 30.1618 19.8105 30.2675C19.9387 30.3732 20.0445 30.5034 20.1217 30.6505C20.199 30.7976 20.2462 30.9586 20.2604 31.1242C20.2747 31.2897 20.2559 31.4564 20.205 31.6146C20.1541 31.7727 20.0722 31.9192 19.9641 32.0453C18.3453 34.0062 16.3438 35 14 35C11.8459 34.9975 9.78069 34.1407 8.2575 32.6175C6.7343 31.0943 5.87748 29.0291 5.875 26.875C5.875 24.4078 4.9875 23.5516 3.75937 22.3688C2.19687 20.8594 0.25 18.9844 0.25 13.75C0.25 10.1033 1.69866 6.60591 4.27728 4.02728C6.85591 1.44866 10.3533 0 14 0C17.6467 0 21.1441 1.44866 23.7227 4.02728C26.3013 6.60591 27.75 10.1033 27.75 13.75ZM21.7922 22.6688C21.65 22.5863 21.493 22.5328 21.3301 22.5111C21.1672 22.4894 21.0017 22.5001 20.8429 22.5424C20.6841 22.5848 20.5353 22.6581 20.4049 22.758C20.2744 22.858 20.165 22.9827 20.0828 23.125C19.9453 23.3634 19.7329 23.5498 19.4786 23.6552C19.2244 23.7606 18.9424 23.7791 18.6765 23.7079C18.4106 23.6367 18.1757 23.4797 18.0082 23.2613C17.8406 23.0429 17.7499 22.7753 17.75 22.5C17.75 21.0422 18.5031 20.0375 19.375 18.875C20.3703 17.5469 21.5 16.0422 21.5 13.75C21.5 11.7609 20.7098 9.85322 19.3033 8.4467C17.8968 7.04018 15.9891 6.25 14 6.25C12.0109 6.25 10.1032 7.04018 8.6967 8.4467C7.29018 9.85322 6.5 11.7609 6.5 13.75C6.5 14.0815 6.6317 14.3995 6.86612 14.6339C7.10054 14.8683 7.41848 15 7.75 15C8.08152 15 8.39946 14.8683 8.63388 14.6339C8.8683 14.3995 9 14.0815 9 13.75C9 12.4239 9.52678 11.1521 10.4645 10.2145C11.4021 9.27678 12.6739 8.75 14 8.75C15.3261 8.75 16.5979 9.27678 17.5355 10.2145C18.4732 11.1521 19 12.4239 19 13.75C19 15.2078 18.2469 16.2125 17.375 17.375C16.3797 18.7031 15.25 20.2078 15.25 22.5C15.2503 23.3253 15.5228 24.1274 16.0253 24.7821C16.5278 25.4367 17.2322 25.9073 18.0293 26.121C18.8265 26.3346 19.6718 26.2793 20.4344 25.9636C21.1969 25.6479 21.834 25.0895 22.2469 24.375C22.4125 24.0884 22.4576 23.7477 22.3723 23.4279C22.2871 23.108 22.0785 22.835 21.7922 22.6688Z" fill="black"/>
</svg>
